<svg xmlns="http://www.w3.org/2000/svg" width="96" height="96" fill="none"><g fill="#0070e0"><path d="M12 48c0-19.882 16.118-36 36-36v36H12z"/><path d="M84 48c0 19.882-16.118 36-36 36V48h36z"/></g><path d="M48 12c19.882 0 36 16.118 36 36H52a4 4 0 0 1-4-4V12z" fill="#003087"/><path d="M48 84c-19.882 0-36-16.118-36-36h36v36z" fill="#0070e0"/><path d="M48 24c13.255 0 24 10.745 24 24H48V24z" fill="#faf8f5"/><g fill="#003087"><path d="M48 72c-13.255 0-24-10.745-24-24h24v24z"/><path d="M72 48c0 13.255-10.745 24-24 24V48h24z"/><path d="M24 48c0-13.255 10.745-24 24-24v24H24z"/></g></svg>