<svg xmlns="http://www.w3.org/2000/svg" width="96" height="96" fill="none"><path d="M12 52a4 4 0 0 1 4-4h28a4 4 0 0 1 4 4v28a4 4 0 0 1-4 4H16a4 4 0 0 1-4-4V52z" fill="#003087"/><path d="M20 16a4 4 0 0 1 4-4h28l24 24v36a4 4 0 0 1-4 4H24a4 4 0 0 1-4-4V16z" fill="#0070e0"/><path d="M48 76H24a4 4 0 0 1-4-4V48h24a4 4 0 0 1 4 4v24z" fill="#faf8f5"/><g fill="#003087"><path d="M38.098 68.551a1 1 0 0 0 1.414 0l1.061-1.061a1 1 0 0 0 0-1.414L36.497 62l4.055-4.055a1 1 0 0 0 0-1.414l-1.061-1.061a1 1 0 0 0-1.414 0l-4.055 4.055-4.056-4.056a1 1 0 0 0-1.414 0l-1.061 1.061a1 1 0 0 0 0 1.414L31.547 62l-4.076 4.076a1 1 0 0 0 0 1.414l1.061 1.061a1 1 0 0 0 1.414 0l4.076-4.076 4.076 4.076zM52 32V12l24 24H56a4 4 0 0 1-4-4z"/><path d="M44 24.75a1 1 0 0 1-1 1H29a1 1 0 0 1-1-1v-1.5a1 1 0 0 1 1-1h14a1 1 0 0 1 1 1v1.5zm0 8a1 1 0 0 1-1 1H29a1 1 0 0 1-1-1v-1.5a1 1 0 0 1 1-1h14a1 1 0 0 1 1 1v1.5z" fill-rule="evenodd"/></g></svg>