<svg xmlns="http://www.w3.org/2000/svg" width="96" height="96" fill="none"><path d="M76 44c0 17.673-14.327 32-32 32S12 61.673 12 44s14.327-32 32-32 32 14.327 32 32z" fill="#003087"/><path d="M84 52c0 17.673-14.327 32-32 32S20 69.673 20 52s14.327-32 32-32 32 14.327 32 32z" fill="#0070e0"/><path d="M44 76c17.673 0 32-14.327 32-32 0-6.793-2.117-13.092-5.727-18.273C65.092 22.117 58.793 20 52 20c-17.673 0-32 14.327-32 32 0 6.793 2.117 13.092 5.727 18.273C30.908 73.883 37.207 76 44 76z" fill="#faf8f5"/><path d="M49.964 31.123l3.782 8.006c.113.228.278.426.482.576a1.57 1.57 0 0 0 .689.289l8.688 1.281c.397.048.762.247 1.02.556s.392.705.373 1.11c-.027.388-.203.75-.491 1.009l-6.33 6.197c-.181.178-.317.398-.397.64a1.62 1.62 0 0 0-.062.753l1.488 8.758c.075.411-.013.836-.243 1.183a1.58 1.58 0 0 1-.991.674c-.336.055-.68-.002-.981-.16l-7.755-4.131a1.57 1.57 0 0 0-1.456 0l-7.77 4.131c-.368.187-.794.222-1.187.096s-.722-.401-.917-.769c-.157-.305-.212-.653-.158-.993l1.488-8.759a1.62 1.62 0 0 0-.062-.753c-.08-.242-.216-.462-.397-.64l-6.33-6.197a1.61 1.61 0 0 1 0-2.226c.227-.227.522-.373.839-.416l8.688-1.281a1.57 1.57 0 0 0 .698-.285c.207-.15.374-.349.489-.579l3.861-8.006a1.6 1.6 0 0 1 .582-.736 1.57 1.57 0 0 1 1.78 0 1.6 1.6 0 0 1 .582.736v-.064z" fill="#003087"/></svg>