<svg xmlns="http://www.w3.org/2000/svg" width="96" height="96" fill="none"><path d="M12 24a4 4 0 0 1 4-4h60a4 4 0 0 1 4 4v40a4 4 0 0 1-4 4H16a4 4 0 0 1-4-4V24z" fill="#0070e0"/><path d="M48 48a4 4 0 0 1 4-4h32a4 4 0 0 1 4 4v24a4 4 0 0 1-4 4H52a4 4 0 0 1-4-4V48z" fill="#003087"/><path d="M80 44v20a4 4 0 0 1-4 4H48V48a4 4 0 0 1 4-4h28z" fill="#faf8f5"/><g fill="#003087"><path d="M12 28H80V40H12V28Z"/><path d="M36 60.75a1 1 0 0 1-1 1H17a1 1 0 0 1-1-1v-1.5a1 1 0 0 1 1-1h18a1 1 0 0 1 1 1v1.5zm36.589-10.285a1 1 0 0 1 .165 1.405l-9.337 11.818a1 1 0 0 1-1.423.15l-6.34-5.252a1 1 0 0 1-.132-1.408l.957-1.155a1 1 0 0 1 1.408-.132l3.581 2.967a1 1 0 0 0 1.423-.15l7.117-9.007a1 1 0 0 1 1.405-.165l1.177.93z" fill-rule="evenodd"/></g></svg>