<svg xmlns="http://www.w3.org/2000/svg" width="96" height="96" fill="none"><path d="M12 16a4 4 0 0 1 4-4h52a4 4 0 0 1 4 4v52a4 4 0 0 1-4 4H16a4 4 0 0 1-4-4V16z" fill="#0070e0"/><path d="M44 48a4 4 0 0 1 4-4h32a4 4 0 0 1 4 4v32a4 4 0 0 1-4 4H48a4 4 0 0 1-4-4V48z" fill="#003087"/><path d="M72 44v24a4 4 0 0 1-4 4H44V48a4 4 0 0 1 4-4h24z" fill="#faf8f5"/><g fill="#003087"><path d="M20 21a1 1 0 0 1 1-1h14a1 1 0 0 1 1 1v14a1 1 0 0 1-1 1H21a1 1 0 0 1-1-1V21zm0 28a1 1 0 0 1 1-1h14a1 1 0 0 1 1 1v14a1 1 0 0 1-1 1H21a1 1 0 0 1-1-1V49zm28-28a1 1 0 0 1 1-1h14a1 1 0 0 1 1 1v14a1 1 0 0 1-1 1H49a1 1 0 0 1-1-1V21z"/><path fill-rule="evenodd" d="M59.25 60.25a1 1 0 0 0 1-1V49a1 1 0 0 1 1-1h1.5a1 1 0 0 1 1 1v13.75a1 1 0 0 1-1 1H49a1 1 0 0 1-1-1v-1.5a1 1 0 0 1 1-1h10.25z"/></g></svg>