<svg xmlns="http://www.w3.org/2000/svg" width="96" height="96" fill="none"><path d="M92 72a4 4 0 0 1-4 4H32a4 4 0 0 1-4-4V44a4 4 0 0 1 4-4h56a4 4 0 0 1 4 4v28z" fill="#003087"/><path d="M4 24a4 4 0 0 1 4-4h48a4 4 0 0 1 4 4v32a4 4 0 0 1-4 4H8a4 4 0 0 1-4-4V24z" fill="#0070e0"/><path d="M60 40v16a4 4 0 0 1-4 4H28V44a4 4 0 0 1 4-4h28z" fill="#faf8f5"/><path d="M4 28h56v8H4v-8z" fill="#003087"/><path d="M46 58c0-7.732 6.268-14 14-14s14 6.268 14 14-6.268 14-14 14-14-6.268-14-14z" fill="#0070e0"/><g fill="#003087"><path d="M60 44c-7.732 0-14 6.268-14 14a14.11 14.11 0 0 0 .142 2H56a4 4 0 0 0 4-4V44z"/><path fill-rule="evenodd" d="M24 52.75a1 1 0 0 1-1 1H9a1 1 0 0 1-1-1v-1.5a1 1 0 0 1 1-1h14a1 1 0 0 1 1 1v1.5z"/></g></svg>