<svg xmlns="http://www.w3.org/2000/svg" width="96" height="96" fill="none"><path d="M48 12c-19.547 0-35.455 15.579-35.986 34.997-.015.552.434 1.003.986 1.003h70c.552 0 1.001-.45.986-1.003C83.456 27.579 67.547 12 48 12z" fill="#0070e0"/><g fill-rule="evenodd"><path d="M48.227 32C39.207 32 32 39.221 32 48H20c0-15.522 12.696-28 28.227-28a28.27 28.27 0 0 1 20.01 8.251l-8.472 8.498C56.823 33.817 52.751 32 48.227 32z" fill="#fff"/><path d="M32 48c0 8.501 6.629 15.453 15 15.969.551.034 1 .478 1 1.031v10c0 .552-.45 1.002-1.002.982C31.999 75.455 20 63.129 20 48h12z" fill="#003087"/></g><path d="M54.758 43.716A7.96 7.96 0 0 1 56 48a8 8 0 1 1-16 0 8 8 0 0 1 8-8c1.575 0 3.044.455 4.283 1.242L66.055 27.47a1 1 0 0 1 1.414 0l1.061 1.061a1 1 0 0 1 0 1.414L54.758 43.716z" fill="#003087"/></svg>