<svg xmlns="http://www.w3.org/2000/svg" width="96" height="96" fill="none"><path d="M43.03 18.971c9.373-9.373 24.569-9.373 33.941 0s9.373 24.569 0 33.941L47.273 82.611a6 6 0 0 1-8.504-8.467 6 6 0 0 1-8.467-8.504 6 6 0 0 1-8.485-8.485 6 6 0 1 1-8.485-8.485l8.485-8.485.011-.011L43.03 18.971z" fill="#003087"/><path d="M18.972 52.971c-9.373-9.373-9.373-24.568 0-33.941s24.569-9.373 33.941 0l29.698 29.699a6 6 0 0 1-8.485 8.485 6 6 0 0 1-8.466 8.504 6 6 0 0 1-8.504 8.467 6 6 0 1 1-8.485 8.485L18.972 52.971z" fill="#0070e0"/><g fill="#faf8f5"><path d="M14.741 47.261c1.091 2.053 2.501 3.98 4.231 5.71l3.515 3.515 7.816-7.816a6 6 0 1 0-8.486-8.485l-7.076 7.077zm33.201 34.68l7.816-7.816a6 6 0 0 0-8.467-8.504 6 6 0 0 0-8.504-8.467l-7.816 7.816 16.97 16.971z"/><path d="M30.972 64.971l7.816-7.816a6 6 0 0 0-8.485-8.485l-7.816 7.816 8.485 8.485zm16.936-49.782c1.79 1.031 3.475 2.311 5.005 3.841l3.932 3.932-8.115 8.115a6 6 0 1 1-8.485-8.485l6.485-6.485a6.01 6.01 0 0 1 1.179-.918z"/></g></svg>