<svg xmlns="http://www.w3.org/2000/svg" width="96" height="96" fill="none"><path d="M84 48c0 19.882-16.118 36-36 36S12 67.882 12 48s16.118-36 36-36 36 16.118 36 36z" fill="#003087"/><g fill="#0070e0"><path d="M64 48c0 19.882-7.163 36-16 36S32 67.882 32 48s7.163-36 16-36 16 16.118 16 36z"/><path d="M80.258 64A35.85 35.85 0 0 0 84 48a35.85 35.85 0 0 0-3.742-16H15.742A35.85 35.85 0 0 0 12 48a35.85 35.85 0 0 0 3.742 16h64.516z"/></g><path d="M62.337 64C63.401 59.18 64 53.747 64 48s-.599-11.18-1.663-16H33.663C32.599 36.82 32 42.253 32 48s.599 11.18 1.663 16h28.674z" fill="#faf8f5"/></svg>